<?xml version="1.0" encoding="UTF-8" standalone="no"?>
<svg
   xmlns:dc="http://purl.org/dc/elements/1.1/"
   xmlns:cc="http://creativecommons.org/ns#"
   xmlns:rdf="http://www.w3.org/1999/02/22-rdf-syntax-ns#"
   xmlns:svg="http://www.w3.org/2000/svg"
   xmlns="http://www.w3.org/2000/svg"
   xmlns:sodipodi="http://sodipodi.sourceforge.net/DTD/sodipodi-0.dtd"
   xmlns:inkscape="http://www.inkscape.org/namespaces/inkscape"
   width="32mm"
   height="32mm"
   viewBox="0 0 32 32"
   version="1.1"
   id="svg8"
   inkscape:version="1.0.2-2 (e86c870879, 2021-01-15)"
   sodipodi:docname="favicon.svg">
  <defs
     id="defs2" />
  <sodipodi:namedview
     id="base"
     pagecolor="#ffffff"
     bordercolor="#666666"
     borderopacity="1.0"
     inkscape:pageopacity="0.0"
     inkscape:pageshadow="2"
     inkscape:zoom="2.8"
     inkscape:cx="87.685323"
     inkscape:cy="117.9965"
     inkscape:document-units="mm"
     inkscape:current-layer="text837"
     inkscape:document-rotation="0"
     showgrid="false"
     showguides="false"
     inkscape:window-width="1827"
     inkscape:window-height="1051"
     inkscape:window-x="-9"
     inkscape:window-y="-9"
     inkscape:window-maximized="1" />
  <metadata
     id="metadata5">
    <rdf:RDF>
      <cc:Work
         rdf:about="">
        <dc:format>image/svg+xml</dc:format>
        <dc:type
           rdf:resource="http://purl.org/dc/dcmitype/StillImage" />
        <dc:title />
      </cc:Work>
    </rdf:RDF>
  </metadata>
  <g
     inkscape:label="Ebene 1"
     inkscape:groupmode="layer"
     id="layer1"
     transform="translate(-31.537804,-83.388092)">
    <rect
       style="fill:#e4e6d9;fill-opacity:1;stroke-width:0.699999"
       id="rect833"
       width="32"
       height="32"
       x="31.537804"
       y="83.388092" />
    <g
       aria-label="H"
       id="text837"
       style="font-style:normal;font-variant:normal;font-weight:normal;font-stretch:normal;font-size:21.3333px;line-height:1.25;font-family:'Balmoral LET';-inkscape-font-specification:'Balmoral LET, Normal';font-variant-ligatures:normal;font-variant-caps:normal;font-variant-numeric:normal;font-variant-east-asian:normal;fill:#5a6f1a;fill-opacity:1;stroke:none;stroke-width:0.264584">
      <path
         d="m 54.287778,104.89324 q -0.177083,0.82291 -0.624999,1.30208 -0.447916,0.47916 -0.999998,0.47916 -0.541666,0 -1.010415,-0.40625 -0.458333,-0.40625 -0.739582,-1.12499 -0.28125,-0.70834 -0.28125,-1.53125 0,-1.47917 0.760416,-4.312495 l 0.104166,-0.385416 -1.562497,0.364583 -0.104167,0.489582 q -0.322916,1.572916 -0.666666,2.437496 -0.333332,0.85417 -0.927081,1.61458 -0.770833,0.98958 -2.010414,1.5625 -1.229165,0.57291 -2.614579,0.57291 -1.677081,0 -3.072912,-0.85416 -1.395831,-0.85417 -2.197913,-2.34375 -0.802082,-1.49999 -0.802082,-3.291659 0,-3.197911 2.572912,-5.041658 0.708333,-0.510416 1.395832,-0.760416 0.687498,-0.260416 1.67708,-0.395833 0.614583,-0.645832 1.208332,-0.906248 0.604165,-0.260416 1.406247,-0.260416 0.937499,0 1.718748,0.468749 l 0.906248,0.531249 q 0.979165,0.583333 1.927081,0.583333 0.437499,0 0.781248,-0.08333 0.354166,-0.09375 0.989582,-0.364582 0.781249,-0.333333 1.145832,-0.333333 0.09375,0 0.177083,0.01042 v 0.25 h -0.166667 q -0.499999,0 -0.979165,0.291666 -0.468749,0.291666 -0.822915,0.791666 -0.385416,0.531249 -0.729166,1.58333 -0.343749,1.052082 -0.677082,2.729163 l -0.09375,0.468749 1.604164,-0.406249 q 0.645833,-2.281247 1.760414,-3.739578 0.708332,-0.895832 1.447915,-1.385414 0.739582,-0.489583 1.427081,-0.489583 0.364582,0 0.666665,0.145833 0.3125,0.135417 0.479166,0.385416 0.177083,0.239583 0.177083,0.552083 0,0.239583 -0.15625,0.416666 -0.145833,0.166666 -0.385416,0.166666 -0.229166,0 -0.385416,-0.166666 -0.145833,-0.166667 -0.156249,-0.395833 l -0.01042,-0.249999 q -0.02083,-0.53125 -0.447916,-0.53125 -0.499999,0 -1.010415,0.5625 -0.499999,0.552082 -0.999999,1.624997 -0.489582,1.062498 -0.937498,2.624996 l -0.114583,0.374999 q 0.447916,0 0.781249,0.166667 0.333332,0.166666 0.697915,0.593749 l -0.208333,0.166666 q -0.583329,-0.64584 -1.229162,-0.64584 h -0.114583 q -0.125,0.364583 -0.312499,1.208334 -0.01042,0.0625 -0.21875,0.91666 -0.104166,0.39584 -0.15625,0.61458 -0.499999,1.95834 -0.499999,3.02083 0,1.84375 0.947915,1.84375 0.989582,0 1.437498,-1.55208 z m -5.583324,-5.708328 q 0.0625,-0.1875 0.104166,-0.34375 0.05208,-0.166666 0.09375,-0.281249 0.302083,-0.874999 0.479166,-1.479165 0.406249,-1.239581 0.854165,-1.937496 0.447916,-0.697916 1.270832,-1.406248 -0.645833,0.229166 -1.291665,0.229166 -0.802082,0 -1.583331,-0.333333 -0.302083,-0.125 -1.145831,-0.645832 -0.979165,-0.604166 -1.791664,-0.604166 -1.354165,0 -2.14583,0.906249 0.08333,0 0.145833,0 0.0625,-0.01042 0.135417,-0.01042 1.239581,0 2.249996,0.614583 1.020832,0.604165 1.604164,1.67708 0.583333,1.062499 0.583333,2.343746 0,0.625 -0.166667,1.260415 0.25,0.02083 0.25,0.02083 l 0.239583,-0.01042 z m -0.937499,-0.114583 q 0.21875,-0.604166 0.21875,-1.291665 0,-0.895832 -0.322916,-1.677081 -0.3125,-0.781248 -0.906249,-1.364581 -0.593749,-0.593749 -1.374998,-0.916665 -0.770832,-0.322916 -1.67708,-0.322916 -0.04167,0 -0.395833,0.02083 -0.427083,0.604166 -0.635416,1.197915 -0.197916,0.583332 -0.197916,1.270831 0,0.895832 0.374999,1.656248 0.375,0.749998 0.999999,1.197914 0.635415,0.4375 1.364581,0.4375 1.041665,0 1.677081,-0.718749 -0.05208,-0.197917 -0.05208,-0.375 0,-0.520832 0.302083,-0.520832 0.09375,0 0.15625,0.104166 0.07292,0.104167 0.07292,0.28125 0,0.239583 -0.1875,0.510416 0.197916,0.406249 0.583332,0.510416 z m 0.843749,0.364582 q -0.166666,0.01042 -0.322916,0.01042 -0.145833,0 -0.25,-0.03125 -0.437499,1.468749 -1.520831,2.322909 -1.072915,0.85417 -2.489579,0.85417 -0.947915,0 -1.718747,-0.4375 -0.770833,-0.4375 -1.218748,-1.19792 -0.4375,-0.76041 -0.4375,-1.729159 0,-0.531249 0.177083,-1.031248 l 0.229167,0.0625 q -0.135417,0.552082 -0.135417,0.979165 0,1.270832 0.864582,2.166662 0.864582,0.89583 2.093747,0.89583 1.166665,0 2.249996,-0.84375 1.083332,-0.85416 1.541664,-2.135409 -0.427082,-0.218749 -0.645832,-0.531249 -0.708332,0.729166 -1.822914,0.729166 -0.791665,0 -1.489581,-0.479166 -0.697915,-0.479166 -1.104165,-1.281248 -0.395832,-0.802082 -0.395832,-1.749997 0,-1.343748 0.760415,-2.447913 -0.833332,0.156249 -1.416664,0.416666 -0.572916,0.249999 -1.218748,0.749999 -1.177082,0.906248 -1.822914,2.229163 -0.635416,1.312498 -0.635416,2.781245 0,1.604163 0.739582,2.968743 0.749999,1.35416 2.010414,2.15625 1.260415,0.80208 2.729162,0.80208 0.718749,0 1.437498,-0.30208 0.718749,-0.29167 1.260415,-0.82292 0.479166,-0.44792 0.864582,-1.02083 0.385416,-0.57292 0.729165,-1.38542 0.34375,-0.81249 0.760416,-2.08333 z"
         style="font-style:normal;font-variant:normal;font-weight:normal;font-stretch:normal;font-size:21.3333px;font-family:'Balmoral LET';-inkscape-font-specification:'Balmoral LET, Normal';font-variant-ligatures:normal;font-variant-caps:normal;font-variant-numeric:normal;font-variant-east-asian:normal;fill:#5a6f1a;fill-opacity:1;stroke-width:0.264584"
         id="path833" />
    </g>
  </g>
</svg>
